<svg xmlns="http://www.w3.org/2000/svg" width="46.458" height="41.799" viewBox="0 0 46.458 41.799">
  <path id="Union_1" data-name="Union 1" d="M-414.742,38.483a2.5,2.5,0,0,1-.939-2.089l.009-.175a2.5,2.5,0,0,0-.638-1.805l-1.252-1.39-6.9,10.011c-2.032.676-5.09-1.49-5.17-3.487l7.783-11.291-7.959-8.839-2.322.642a2.5,2.5,0,0,1-2.522-.738l-7.939-8.817a2.5,2.5,0,0,1,.185-3.531l4.167-3.752a2.5,2.5,0,0,1,3.531.185l7.939,8.817a2.5,2.5,0,0,1,.471,2.585l-.882,2.244,7.394,8.212,4.431-6.427h0a9.352,9.352,0,0,0,4.874,3.929l-5.012,7.266,1.815,2.015a2.5,2.5,0,0,0,1.726.824l.177.009a2.5,2.5,0,0,1,1.977,1.153l5.092,7.979-2.627,2.366ZM-438.8,6.8a1.251,1.251,0,0,0-.093,1.768l7.1,7.882a1.251,1.251,0,0,0,1.768.093,1.252,1.252,0,0,0,.092-1.768l-7.1-7.882a1.249,1.249,0,0,0-.931-.414A1.245,1.245,0,0,0-438.8,6.8Zm23.929,8.493A9.356,9.356,0,0,1-409.487,3.2a9.357,9.357,0,0,1,7.468.34l-5.9,4.29-.616,6.228,6.114,1.341,5.624-4.086a9.357,9.357,0,0,1-5.982,9.355,9.335,9.335,0,0,1-3.351.624A9.359,9.359,0,0,1-414.869,15.289Z" transform="translate(443.237 -2.58)" fill="#82d9ff"/>
</svg>
