<svg xmlns="http://www.w3.org/2000/svg" width="30.005" height="26.58" viewBox="0 0 30.005 26.58">
  <path id="electrician" d="M3.124,19.2,5.38,17.144l1.736,1.583L4.859,20.784Zm9.2,4.378V20.256h2.487v3.323ZM3.7,10.128V12.4H0V10.128ZM17.3,5.433a7.29,7.29,0,0,1,2.69,2.427A5.98,5.98,0,0,1,21,11.235a6.231,6.231,0,0,1-2.169,4.774,7.5,7.5,0,0,1-5.236,1.979A7.488,7.488,0,0,1,8.359,16.01,6.237,6.237,0,0,1,6.19,11.235a6.113,6.113,0,0,1,.984-3.376A6.951,6.951,0,0,1,9.892,5.433V0h7.4V5.433Zm6.132,4.695h3.7V12.4h-3.7V10.128Zm-3.413,8.6L21.75,17.2l2.256,2-1.736,1.583Z" transform="translate(28.971 24.599) rotate(178)" fill="none" stroke="#6a4300" stroke-width="2"/>
</svg>
