<svg xmlns="http://www.w3.org/2000/svg" width="34.084" height="28.686" viewBox="0 0 34.084 28.686">
  <g id="fridge" transform="matrix(0.883, 0.469, -0.469, 0.883, 11.056, -10.195)">
    <path id="Path_75" data-name="Path 75" d="M18.867,24.375c0,2.071-1.21,3.75-3.281,3.75H7.852c-2.071,0-3.281-1.679-3.281-3.75" fill="none" stroke="#6a4300" stroke-linecap="round" stroke-miterlimit="10" stroke-width="1.875"/>
    <path id="Path_76" data-name="Path 76" d="M19.688,19.688a2.149,2.149,0,0,1,1.875,2.344h0a2.15,2.15,0,0,1-1.875,2.344H3.75a2.149,2.149,0,0,1-1.875-2.344h0A2.15,2.15,0,0,1,3.75,19.688" fill="none" stroke="#6a4300" stroke-linecap="round" stroke-miterlimit="10" stroke-width="1.875"/>
    <path id="Path_77" data-name="Path 77" d="M20.156,19.688h-9.65a.469.469,0,0,0-.331.137L8.6,21.4a.234.234,0,0,1-.332,0L6.7,19.825a.469.469,0,0,0-.331-.137H3.281a1.406,1.406,0,0,1-1.406-1.406h0a1.406,1.406,0,0,1,1.406-1.406H20.156a1.406,1.406,0,0,1,1.406,1.406h0A1.406,1.406,0,0,1,20.156,19.688Z" fill="none" stroke="#6a4300" stroke-linecap="round" stroke-miterlimit="10" stroke-width="1.875"/>
    <path id="Path_78" data-name="Path 78" d="M3.75,16.172v-.013c0-3.223,2.637-4.909,5.859-4.909h4.219c3.223,0,5.859,1.7,5.859,4.922v-.013" fill="none" stroke="#6a4300" stroke-linecap="round" stroke-miterlimit="10" stroke-width="1.875"/>
    <path id="Path_79" data-name="Path 79" d="M14.121,6.563l.436,3.748" fill="none" stroke="#6a4300" stroke-linecap="round" stroke-miterlimit="10" stroke-width="1.875"/>
    <path id="Path_80" data-name="Path 80" d="M15,28.125h8.163a1.875,1.875,0,0,0,1.87-1.735l2.1-19.827" fill="none" stroke="#6a4300" stroke-linecap="round" stroke-miterlimit="10" stroke-width="1.875"/>
    <path id="Path_81" data-name="Path 81" d="M21.563,6.563l.938-3.75,2.754-.938" fill="none" stroke="#6a4300" stroke-linecap="round" stroke-linejoin="round" stroke-width="1.875"/>
    <path id="Path_82" data-name="Path 82" d="M13.125,6.563h15" fill="none" stroke="#6a4300" stroke-linecap="round" stroke-miterlimit="10" stroke-width="1.875"/>
  </g>
</svg>
