<svg xmlns="http://www.w3.org/2000/svg" width="34.088" height="32.353" viewBox="0 0 34.088 32.353">
  <g id="painter" transform="translate(-2.426 6.755) rotate(-16)">
    <path id="Path_70" data-name="Path 70" d="M4.167,1.667H25a.833.833,0,0,1,.833.833V9.167A.833.833,0,0,1,25,10H4.167a.833.833,0,0,1-.834-.833V2.5a.833.833,0,0,1,.834-.833Z" fill="none" stroke="#6a4300" stroke-width="2"/>
    <path id="Path_71" data-name="Path 71" d="M27.5,5h-.833v5.2L15.592,13.708a.833.833,0,0,0-.592.833v1.292H13.333v12.5a.833.833,0,0,0,.833.833H17.5a.833.833,0,0,0,.833-.833v-12.5H16.665V15.15l11.077-3.483a.833.833,0,0,0,.592-.833v-5A.833.833,0,0,0,27.5,5Z" fill="none" stroke="#6a4300" stroke-width="2"/>
  </g>
</svg>
