<svg xmlns="http://www.w3.org/2000/svg" width="32" height="32" viewBox="0 0 32 32">
  <path id="plumber" d="M28.125,22.5h-7.5a1.8,1.8,0,0,1-1.318-.557,1.824,1.824,0,0,1-.557-1.333,1.765,1.765,0,0,1,.557-1.318,1.829,1.829,0,0,1,1.318-.542q0-1.875-3.75-1.875H15a1.851,1.851,0,0,1-1.875,1.875H11.25a1.824,1.824,0,0,1-1.318-.542,1.792,1.792,0,0,1-.557-1.333H3.75A1.851,1.851,0,0,1,1.89,18.75a1.844,1.844,0,0,1-1.333-.542A1.787,1.787,0,0,1,0,16.875v-7.5A1.787,1.787,0,0,1,.557,8.042,1.844,1.844,0,0,1,1.89,7.5,1.851,1.851,0,0,1,3.75,9.375H9.375a1.787,1.787,0,0,1,.557-1.333A1.827,1.827,0,0,1,11.25,7.5V5.449a2.711,2.711,0,0,1-1.274-.923A2.681,2.681,0,0,1,9.4,3.047a20.258,20.258,0,0,1-2.139.5,10.644,10.644,0,0,1-1.641.2,1.824,1.824,0,0,1-1.318-.542A1.789,1.789,0,0,1,3.75,1.875,1.787,1.787,0,0,1,4.307.542,1.827,1.827,0,0,1,5.625,0,12.44,12.44,0,0,1,7.676.278a12.077,12.077,0,0,1,2.4.689,2.783,2.783,0,0,1,4.218,0A12.153,12.153,0,0,1,16.7.279,12.529,12.529,0,0,1,18.75,0a1.812,1.812,0,0,1,1.333.542,1.812,1.812,0,0,1,.542,1.333,1.812,1.812,0,0,1-.542,1.333,1.812,1.812,0,0,1-1.333.542,10.644,10.644,0,0,1-1.641-.2,20.258,20.258,0,0,1-2.139-.5A2.675,2.675,0,0,1,14.4,4.526a2.711,2.711,0,0,1-1.274.923V7.5A1.851,1.851,0,0,1,15,9.375h1.875a13.952,13.952,0,0,1,5.669,1.113A9.575,9.575,0,0,1,26.6,13.755a8.423,8.423,0,0,1,1.523,4.995A1.851,1.851,0,0,1,30,20.61a1.844,1.844,0,0,1-.542,1.333A1.787,1.787,0,0,1,28.125,22.5Zm0,4.688a2.812,2.812,0,1,1-5.624,0,4.1,4.1,0,0,1,.659-1.86,14.077,14.077,0,0,1,1.348-1.992q.689-.835.805-.836.176,0,.864.835A12.617,12.617,0,0,1,27.5,25.327,4.224,4.224,0,0,1,28.125,27.188Z" transform="translate(1 1)" fill="none" stroke="#6a4300" stroke-width="2"/>
</svg>
