<svg xmlns="http://www.w3.org/2000/svg" width="31.679" height="32.718" viewBox="0 0 31.679 32.718">
  <path id="barber" d="M10.766,0A3.378,3.378,0,0,0,7.388,3.378c.16,2.278,1.7,2.927,3.395,4.2,1.263.8,1.108,1.689,1.363,3.122-1.124.285-2.471.622-3.271-.058L6.969,9.289,6.96,9.283a3.375,3.375,0,0,0-5.282,1.373c-.065.252-.107.25-.326.25a1.352,1.352,0,0,0,0,2.7c.646-.072.415-.149.78.333a3.378,3.378,0,0,0,5.775-.678,4.535,4.535,0,0,0,1.793.563H25c-1.9-3.455-6.6-2.921-9.7-3.218-.636-1.579-.779-3.665-2.254-4.725h-.015A3.378,3.378,0,0,0,10.766,0Zm0,1.689A1.689,1.689,0,1,1,9.077,3.378,1.689,1.689,0,0,1,10.766,1.689ZM4.819,10.206A1.689,1.689,0,1,1,3.13,11.895,1.689,1.689,0,0,1,4.819,10.206Zm9.016.708a.96.96,0,1,1-.96.96A.96.96,0,0,1,13.835,10.914Zm.072,4.625c1.3,2.631,2.2,5.861,5.489,6.2l-2.316-6.2H13.907ZM3.748,17.409v1.51h3.29v-1.51H3.749Zm5.922,0v1.51H13.3l-.695-1.51H9.67Zm10.323,0,.448,1.51h3.29v-1.51H19.993Z" transform="matrix(-0.53, -0.848, 0.848, -0.53, 13.248, 32.718)" fill="#6a4300"/>
</svg>
