<svg xmlns="http://www.w3.org/2000/svg" width="19.82" height="22.721" viewBox="0 0 19.82 22.721">
  <g id="beautician" transform="matrix(0.035, -0.999, 0.999, 0.035, -3.45, 23.318)">
    <path id="Path_87" data-name="Path 87" d="M23.479,5.646,21.965,4.5a1.333,1.333,0,0,0-1.639,0L6.944,15.319a3.792,3.792,0,1,0,1.389,1.257l2.708-2.167,9.285,7.479a1.333,1.333,0,0,0,1.639,0l1.514-1.139-8.937-7.555ZM5.174,20.66A1.986,1.986,0,1,1,7.16,18.674,1.986,1.986,0,0,1,5.174,20.66Z" fill="#6a4300"/>
    <path id="Path_88" data-name="Path 88" d="M9.931,10.583l-1.6-1.291a3.792,3.792,0,1,0-1.389,1.257l1.5,1.257ZM5.174,9.194a1.982,1.982,0,1,0,0-.007Z" fill="#6a4300"/>
  </g>
</svg>
