<svg xmlns="http://www.w3.org/2000/svg" width="20.313" height="21.875" viewBox="0 0 20.313 21.875">
  <g id="doctor" transform="translate(-3.125 -1.563)">
    <path id="Path_89" data-name="Path 89" d="M21.094,9.375v1.563h.781v3.125a2.344,2.344,0,1,1-4.688,0V10.938h.781V9.375H15.624v4.688a3.913,3.913,0,0,0,3.125,3.827v.86a3.125,3.125,0,0,1-6.25,0V17.044a2.344,2.344,0,1,0-1.563,0V18.75a4.688,4.688,0,1,0,9.375,0v-.86a3.913,3.913,0,0,0,3.127-3.827V9.375Zm-9.375,4.688a.781.781,0,1,1-.781.781A.781.781,0,0,1,11.719,14.063Z" fill="#6a4300"/>
    <path id="Path_90" data-name="Path 90" d="M20.313,3.125H17.188V1.563H15.625V3.126H9.375V1.563H7.812V3.126H4.688A1.563,1.563,0,0,0,3.125,4.689V20.314a1.563,1.563,0,0,0,1.563,1.563H7.813V20.314H4.688V4.688H7.813V6.251H9.376V4.688h6.25V6.251h1.563V4.688h3.125V7.813h1.563V4.688a1.563,1.563,0,0,0-1.563-1.563Z" fill="#6a4300"/>
  </g>
</svg>
