<svg xmlns="http://www.w3.org/2000/svg" width="40" height="30" viewBox="0 0 40 30">
  <path id="student" d="M40,28.75a1.25,1.25,0,0,1-2.5,0V12.305L23.711,19.219A8.215,8.215,0,0,1,20,20a8.215,8.215,0,0,1-3.711-.781L1.523,11.836Q0,11.055,0,9.98T1.523,8.164L16.289.781A8.215,8.215,0,0,1,20,0a8.215,8.215,0,0,1,3.711.781L38.477,8.164A2.371,2.371,0,0,1,39.961,9.8.226.226,0,0,1,40,9.961V28.75ZM24.961,21.719,32.5,17.93v5.508q0,1.68-3.652,2.871A28.753,28.753,0,0,1,20,27.5a28.753,28.753,0,0,1-8.848-1.191Q7.5,25.118,7.5,23.438V17.93l7.539,3.789A11.734,11.734,0,0,0,20,22.5,11.734,11.734,0,0,0,24.961,21.719Z" fill="#48bcff"/>
</svg>
