<svg xmlns="http://www.w3.org/2000/svg" width="18.75" height="18.75" viewBox="0 0 18.75 18.75">
  <g id="fruits1" transform="translate(-3.125 -3.125)">
    <path id="Path_32" data-name="Path 32" d="M17.015,6.25a8.972,8.972,0,0,0-2.387.417A11.38,11.38,0,0,1,13.2,6.99,4.691,4.691,0,0,0,8.594,3.125V4.688a3.12,3.12,0,0,1,2.99,2.266q-.637-.116-1.263-.285A10.07,10.07,0,0,0,7.838,6.25c-2.908,0-4.713,2.4-4.713,6.25,0,5.867,3.178,9.374,6.25,9.375h0a5.592,5.592,0,0,0,1.945-.461,3.916,3.916,0,0,1,1.178-.32,3.927,3.927,0,0,1,1.18.32,5.586,5.586,0,0,0,1.945.461c3.07,0,6.25-3.508,6.25-9.375C21.875,9.617,20.6,6.25,17.015,6.25Zm-1.39,14.063a4.3,4.3,0,0,1-1.4-.363,5.013,5.013,0,0,0-1.727-.419,5,5,0,0,0-1.723.419,4.323,4.323,0,0,1-1.4.363h0c-2.3,0-4.689-2.923-4.689-7.813,0-1.409.307-4.688,3.15-4.688a8.778,8.778,0,0,1,2.094.37,10.142,10.142,0,0,0,2.383.412H12.7a9.216,9.216,0,0,0,2.341-.419,7.694,7.694,0,0,1,1.977-.363c3.136,0,3.3,3.9,3.3,4.688C20.313,17.39,17.929,20.312,15.625,20.313Z" fill="#6a4300"/>
    <path id="Path_33" data-name="Path 33" d="M14.063,5.469h-.781V4.688a1.564,1.564,0,0,1,1.563-1.563h.781v.781a1.564,1.564,0,0,1-1.563,1.563Z" fill="#6a4300"/>
  </g>
</svg>
