<svg xmlns="http://www.w3.org/2000/svg" width="23.437" height="21.876" viewBox="0 0 23.437 21.876">
  <g id="grocery1" transform="translate(0 -3.125)">
    <path id="Path_31" data-name="Path 31" d="M0,3.906a.781.781,0,0,1,.781-.781H3.125a.781.781,0,0,1,.758.592L4.516,6.25h18.14a.781.781,0,0,1,.758.97L21.07,16.6a.781.781,0,0,1-.757.593H6.25a.781.781,0,0,1-.758-.592L2.516,4.688H.781A.781.781,0,0,1,0,3.907ZM4.906,7.813l.781,3.125H7.813V7.813Zm4.469,0v3.125H12.5V7.813Zm4.688,0v3.125h3.125V7.813Zm4.688,0v3.125h2.125l.781-3.125H18.75ZM20.485,12.5H18.75v3.125H19.7l.781-3.125Zm-3.3,0H14.063v3.125h3.125Zm-4.688,0H9.375v3.125H12.5Zm-4.687,0H6.078l.781,3.125h.954Zm0,7.813a1.563,1.563,0,1,0,1.523,1.563,1.563,1.563,0,0,0-1.523-1.562ZM4.688,21.876A3.125,3.125,0,1,1,7.813,25a3.125,3.125,0,0,1-3.125-3.125Zm14.063-1.563a1.563,1.563,0,1,0,1.523,1.563A1.563,1.563,0,0,0,18.751,20.313Zm-3.125,1.563A3.125,3.125,0,1,1,18.751,25a3.125,3.125,0,0,1-3.125-3.125Z" fill="#6a4300" fill-rule="evenodd"/>
  </g>
</svg>
