<svg xmlns="http://www.w3.org/2000/svg" width="24.976" height="24.977" viewBox="0 0 24.976 24.977">
  <path id="milk1" d="M24.216,24.976H.8a.75.75,0,0,1-.549-.232.747.747,0,0,1-.231-.549V10.146a5.363,5.363,0,0,1,.195-2.1L3.143,5.121V.78A.75.75,0,0,1,3.375.231.75.75,0,0,1,3.924,0h15.61a.75.75,0,0,1,.549.232.75.75,0,0,1,.232.549v3.9l3.9,3.122a2.455,2.455,0,0,1,.549.817,2.692,2.692,0,0,1,.207.72q.024.269.024.805V24.195a.792.792,0,0,1-.781.781ZM1.582,23.415H14.07V10.927H1.582V23.415Zm0-14.049H14.07l3.122-3.122H4.7Zm17.171-7.8H4.7V4.683H18.753V1.561Zm.78,4.683L16.411,9.366h7.024Zm3.9,4.683H15.63V23.415h7.805Z" transform="translate(-0.021 0.001)" fill="#6a4300"/>
</svg>
