<svg xmlns="http://www.w3.org/2000/svg" width="23.438" height="23.438" viewBox="0 0 23.438 23.438">
  <g id="restaurant1" transform="translate(-0.781 -0.781)">
    <path id="Path_34" data-name="Path 34" d="M16.733,10.935h.726A3.881,3.881,0,0,0,20.222,9.79l4-4.028L23.134,4.668,19.053,8.749,18.2,7.9l4.081-4.082L21.163,2.73,17.1,6.8l-.846-.848,4.081-4.082L19.238.781l-4.028,4a3.881,3.881,0,0,0-1.145,2.763v.726l-2.106,2.106L2.344.781C.182,3.46,1.458,8.384,3.893,10.819l4.175,4.175c1.3,1.3,1.554,1.412,3.024.82.317-.127.432-.113.728.182l.635.592c.143.146.146.189.146.47v.271a2.857,2.857,0,0,0,1.092,2.063l5.057,4.827L22.266,20.7,14.628,13.04Z" fill="#6a4300"/>
    <path id="Path_35" data-name="Path 35" d="M11.1,17.314c-1.456.3-2.349.573-4.057-1.134L6.962,16.1l-.952-.952L.781,20.313l3.906,3.906,7.031-7.031Z" fill="#6a4300"/>
  </g>
</svg>
