<svg xmlns="http://www.w3.org/2000/svg" width="21.876" height="20.313" viewBox="0 0 21.876 20.313">
  <path id="vegetable1" d="M20.313,11.719a4.69,4.69,0,0,0-2.427-4.1,3.109,3.109,0,0,0,.864-2.146H17.187a1.564,1.564,0,0,1-1.563,1.563,4.691,4.691,0,0,0-4.684,4.6A5.469,5.469,0,0,1,9.375,7.813,3.122,3.122,0,0,0,7.031,4.8V3.125H5.469V4.8A3.122,3.122,0,0,0,3.125,7.813v3.906H1.563V12.5a10.938,10.938,0,1,0,21.875,0v-.781ZM15.625,8.594a3.129,3.129,0,0,1,3.125,3.125H12.5A3.129,3.129,0,0,1,15.625,8.594ZM4.688,7.813a1.563,1.563,0,1,1,3.125,0,7.024,7.024,0,0,0,1.2,3.906H4.688ZM12.5,21.876a9.388,9.388,0,0,1-9.344-8.595H21.844A9.388,9.388,0,0,1,12.5,21.875Z" transform="translate(-1.563 -3.125)" fill="#6a4300"/>
</svg>
