<svg xmlns="http://www.w3.org/2000/svg" width="28.125" height="19.215" viewBox="0 0 28.125 19.215">
  <path id="driver1" d="M27.87,13.075l-5.289-.815L19.358,6.994a1.879,1.879,0,0,0-1.614-.9l-13.51.108A1.876,1.876,0,0,0,2.473,7.481L.938,12.034V22.5H4.161a3.984,3.984,0,0,0,7.616,0h5.977a3.984,3.984,0,0,0,7.616,0h3.693V14.465a1.4,1.4,0,0,0-1.192-1.39ZM13.125,8.01l4.633-.037,2.584,4.222-7.217,0Zm-8.876.071,7-.056v4.166l-8.386,0Zm3.72,15.357a2.109,2.109,0,1,1,2.109-2.109A2.109,2.109,0,0,1,7.969,23.438Zm13.594,0a2.109,2.109,0,1,1,2.109-2.109A2.109,2.109,0,0,1,21.563,23.438Zm5.625-2.813h-1.7a3.983,3.983,0,0,0-7.842,0H11.89a3.983,3.983,0,0,0-7.842,0H2.813V14.064L22.18,14.1l5.008.772Z" transform="translate(-0.938 -6.098)" fill="#6a4300"/>
</svg>
