<svg xmlns="http://www.w3.org/2000/svg" width="24.376" height="26.25" viewBox="0 0 24.376 26.25">
  <g id="househelp1" transform="translate(-3.749 -1.875)">
    <path id="Path_66" data-name="Path 66" d="M24.375,18.75H18.75V16.875h5.625Z" fill="#6a4300"/>
    <path id="Path_67" data-name="Path 67" d="M28.125,26.25H22.5V24.375h5.625Z" fill="#6a4300"/>
    <path id="Path_68" data-name="Path 68" d="M26.25,22.5H20.625V20.625H26.25Z" fill="#6a4300"/>
    <path id="Path_69" data-name="Path 69" d="M15.94,18.75a4.589,4.589,0,0,0-2.254-3.912L20.625,2.813,19,1.875,11.9,14.181A5.343,5.343,0,0,0,6.985,15.59c-3.511,3.385-3.239,11.3-3.226,11.635a.938.938,0,0,0,.938.9H18.751a.938.938,0,0,0,.563-1.688c-3.319-2.49-3.373-7.637-3.373-7.687Zm-4.756-2.815a2.916,2.916,0,0,1,2.882,2.815c0,.036,0,.195.016.44L8.551,16.73a3.563,3.563,0,0,1,2.633-.8Zm3.3,10.315a4.875,4.875,0,0,1-1.359-2.812H11.25a6.094,6.094,0,0,0,.907,2.813H10.073a15.578,15.578,0,0,1-.7-3.751H7.5a16.258,16.258,0,0,0,.623,3.75h-2.5c.029-1.721.272-5.524,1.69-8.018l7.062,3.141A12.211,12.211,0,0,0,16.5,26.25Z" fill="#6a4300"/>
  </g>
</svg>
