<svg xmlns="http://www.w3.org/2000/svg" width="20.5" height="25.667" viewBox="0 0 20.5 25.667">
  <path id="cosmatics1" d="M18.2,9.337a2.262,2.262,0,0,1,.325,1.375,2.262,2.262,0,0,1-.325,1.375q-.145.208-.4.59t-.931,1.652a26.444,26.444,0,0,0-1.238,2.681,6.67,6.67,0,0,0-.578,2.219,14.568,14.568,0,0,0,1.156,4.437H2.36q.127-.324.316-.855t.515-1.722a7.586,7.586,0,0,0,.325-1.86,3.389,3.389,0,0,0-.1-.786,5.9,5.9,0,0,0-.181-.636q-.081-.22-.3-.8a28.865,28.865,0,0,0-1.21-2.623q-.65-1.236-1-1.768a5.594,5.594,0,0,0-.37-.532A2.262,2.262,0,0,1,.03,10.712,2.262,2.262,0,0,1,.355,9.337L8.142,6.448V4.437a1.009,1.009,0,0,1-.822-.428,1.655,1.655,0,0,1-.334-1.052,4.571,4.571,0,0,0-2.349.486,3.193,3.193,0,0,1-.786,1.768,1.961,1.961,0,0,1-1.491.7A2.019,2.019,0,0,1,.725,5.05,3.286,3.286,0,0,1,.048,2.959,3.3,3.3,0,0,1,.725.867,2.014,2.014,0,0,1,2.361,0,1.906,1.906,0,0,1,3.652.52a2.883,2.883,0,0,1,.84,1.329,7.286,7.286,0,0,1,2.439-.37l.018.012.036.012V1.48A1.666,1.666,0,0,1,7.319.44,1,1,0,0,1,8.141,0h2.294a1,1,0,0,1,.822.439,1.666,1.666,0,0,1,.334,1.04V2.959a1.655,1.655,0,0,1-.334,1.052,1.009,1.009,0,0,1-.822.428V6.473Z" transform="translate(0.97 1)" fill="none" stroke="#6a4300" stroke-width="2"/>
</svg>
