<svg xmlns="http://www.w3.org/2000/svg" width="24.872" height="19.5" viewBox="0 0 24.872 19.5">
  <g id="medicine1" transform="translate(-2.75 -5.25)">
    <path id="Path_58" data-name="Path 58" d="M11.25,21.25a2.5,2.5,0,1,1-2.5-2.5A2.5,2.5,0,0,1,11.25,21.25Z" fill="none" stroke="#6a4300" stroke-linecap="round" stroke-linejoin="round" stroke-width="2"/>
    <path id="Path_59" data-name="Path 59" d="M23.75,21.25a2.5,2.5,0,1,1-2.5-2.5A2.5,2.5,0,0,1,23.75,21.25Z" fill="none" stroke="#6a4300" stroke-linecap="round" stroke-linejoin="round" stroke-width="2"/>
    <path id="Path_60" data-name="Path 60" d="M6.25,21.25H3.75V7.5A1.25,1.25,0,0,1,5,6.25H16.25v15m-5,0h7.5m5,0h2.5v-7.5h-10m0-6.25H22.5l3.75,6.25" fill="none" stroke="#6a4300" stroke-linecap="round" stroke-linejoin="round" stroke-width="2"/>
    <path id="Path_61" data-name="Path 61" d="M7.5,12.5h5M10,10v5" fill="none" stroke="#6a4300" stroke-linecap="round" stroke-linejoin="round" stroke-width="2"/>
  </g>
</svg>
