<svg xmlns="http://www.w3.org/2000/svg" width="39.385" height="39.401" viewBox="0 0 39.385 39.401">
  <path id="paint-brush" d="M40.542,32.583l-8.2-8.213V18.281a1.406,1.406,0,0,0-.408-1L17.873,3.22a1.406,1.406,0,0,0-2,0L3.22,15.876a1.406,1.406,0,0,0,0,2L17.283,31.936a1.406,1.406,0,0,0,1,.408h6.1l8.2,8.213A5.628,5.628,0,0,0,40.541,32.6ZM8.438,14.639l3.22,3.234,2-2-3.235-3.22,2.236-2.236,6.033,6.047,2-2L14.639,8.438,16.875,6.2l9.267,9.267L15.469,26.142,6.2,16.875ZM38.546,38.545a2.813,2.813,0,0,1-3.966,0l-8.62-8.606a2.531,2.531,0,0,0-1-.408h-6.1l-1.406-1.406L28.125,17.452l1.406,1.406v6.1a1.406,1.406,0,0,0,.408.984l8.606,8.634a2.813,2.813,0,0,1,0,3.966Z" transform="translate(-2.804 -2.804)" fill="#8bc5ff"/>
</svg>
