<svg xmlns="http://www.w3.org/2000/svg" width="29" height="20" viewBox="0 0 29 20">
  <g id="toys1" transform="translate(-2.5 -5)">
    <path id="Path_47" data-name="Path 47" d="M28.97,10.9c-.155-1.869-2.119-3.4-4.47-3.4H9.5C7.09,7.489,5.1,9.076,5.015,11.084a1.03,1.03,0,0,1-.026.194L5,20.625a1.747,1.747,0,0,0,.655,1.328,2.517,2.517,0,0,0,1.595.547c.75,0,1.557-.8,2.491-1.721A21.839,21.839,0,0,1,11.466,19.2a10.839,10.839,0,0,1,3.688-1.561A10.731,10.731,0,0,1,17,17.5a10.764,10.764,0,0,1,1.843.14A10.91,10.91,0,0,1,22.535,19.2a21.447,21.447,0,0,1,1.723,1.578C25.194,21.7,26,22.5,26.75,22.5a2.515,2.515,0,0,0,1.594-.546A1.744,1.744,0,0,0,29,20.625V11.25a.7.7,0,0,1-.016-.2.448.448,0,0,1-.016-.15ZM11,15a2.784,2.784,0,0,1-3-2.5A2.784,2.784,0,0,1,11,10a2.784,2.784,0,0,1,3,2.5A2.784,2.784,0,0,1,11,15ZM23,8.75A1.392,1.392,0,0,1,24.5,10a1.525,1.525,0,0,1-3,0A1.392,1.392,0,0,1,23,8.75Zm-3,5a1.392,1.392,0,0,1-1.5-1.25A1.392,1.392,0,0,1,20,11.25a1.392,1.392,0,0,1,1.5,1.25A1.392,1.392,0,0,1,20,13.75Zm3,2.5A1.392,1.392,0,0,1,21.5,15a1.525,1.525,0,0,1,3,0A1.392,1.392,0,0,1,23,16.25Zm3-2.5a1.392,1.392,0,0,1-1.5-1.25,1.525,1.525,0,0,1,3,0A1.392,1.392,0,0,1,26,13.75Z" transform="translate(0)" fill="none"/>
    <path id="Path_48" data-name="Path 48" d="M31.47,10.815C31.2,7.546,28.052,5.009,24.25,5H9.75C5.889,4.985,2.7,7.6,2.519,10.921a2.089,2.089,0,0,0-.019.316v9.387a4.115,4.115,0,0,0,1.482,3.095A5.554,5.554,0,0,0,7.575,25c2.072,0,3.37-1.326,4.624-2.609a18.315,18.315,0,0,1,1.45-1.379,7.725,7.725,0,0,1,2.232-.939,11.424,11.424,0,0,1,2.234,0,7.727,7.727,0,0,1,2.234.939,18.308,18.308,0,0,1,1.45,1.38C23.055,23.674,24.353,25,26.425,25a5.548,5.548,0,0,0,3.59-1.278,4.12,4.12,0,0,0,1.485-3.1V11.25a2.173,2.173,0,0,0-.021-.325l-.01-.11Zm-2.87,9.81a1.77,1.77,0,0,1-.635,1.329,2.38,2.38,0,0,1-1.54.546c-.725,0-1.506-.8-2.408-1.721A21.788,21.788,0,0,0,22.351,19.2a10.344,10.344,0,0,0-3.568-1.561A10.087,10.087,0,0,0,17,17.5a10.024,10.024,0,0,0-1.784.141A10.343,10.343,0,0,0,11.65,19.2a21.006,21.006,0,0,0-1.666,1.576C9.08,21.7,8.3,22.5,7.575,22.5a2.388,2.388,0,0,1-1.542-.547A1.764,1.764,0,0,1,5.4,20.625l-.013-9.348a1,1,0,0,0,.026-.194A4.084,4.084,0,0,1,9.75,7.5h14.5c2.272,0,4.171,1.531,4.321,3.4a.424.424,0,0,0,.015.15.683.683,0,0,0,.015.2v9.375Z" transform="translate(0)" fill="#6a4300"/>
    <path id="Path_49" data-name="Path 49" d="M21.25,15A1.25,1.25,0,1,1,20,13.75,1.25,1.25,0,0,1,21.25,15Z" transform="translate(2.889)" fill="#6a4300"/>
    <path id="Path_50" data-name="Path 50" d="M23.75,12.5a1.25,1.25,0,1,1-1.25-1.25A1.25,1.25,0,0,1,23.75,12.5Z" transform="translate(4)" fill="#6a4300"/>
    <path id="Path_51" data-name="Path 51" d="M21.25,10A1.25,1.25,0,1,1,20,8.75,1.25,1.25,0,0,1,21.25,10Z" transform="translate(2.889)" fill="#6a4300"/>
    <path id="Path_52" data-name="Path 52" d="M18.75,12.5a1.25,1.25,0,1,1-1.25-1.25A1.25,1.25,0,0,1,18.75,12.5Z" transform="translate(2.444)" fill="#6a4300"/>
    <path id="Path_53" data-name="Path 53" d="M12.5,12.5A2.5,2.5,0,1,1,10,10,2.5,2.5,0,0,1,12.5,12.5Z" transform="translate(1)" fill="#6a4300"/>
  </g>
</svg>
